<mxfile host="app.diagrams.net" modified="2023-05-22T07:20:43.356Z" agent="Mozilla/5.0 (Windows NT 10.0; Win64; x64) AppleWebKit/537.36 (KHTML, like Gecko) Chrome/113.0.0.0 Safari/537.36" etag="b1C9eKdRhM93vpHyiRS_" version="21.3.0" type="github">
  <diagram name="LDM data generation flow" id="rYfOkc8y7ct-FKljYFd5">
    <mxGraphModel dx="1965" dy="997" grid="1" gridSize="10" guides="1" tooltips="1" connect="1" arrows="1" fold="1" page="1" pageScale="1" pageWidth="1169" pageHeight="827" math="0" shadow="0">
      <root>
        <mxCell id="0" />
        <mxCell id="1" parent="0" />
        <mxCell id="MzWoeXY6LRH6kOnjoR-k-3" value="" style="group" parent="1" connectable="0" vertex="1">
          <mxGeometry x="24.5" y="40" width="286.24" height="140" as="geometry" />
        </mxCell>
        <mxCell id="MzWoeXY6LRH6kOnjoR-k-1" value="" style="shape=image;verticalLabelPosition=bottom;labelBackgroundColor=default;verticalAlign=top;aspect=fixed;imageAspect=0;image=data:image/png,iVBORw0KGgoAAAANSUhEUgAAAUEAAACdCAMAAAAdWzrjAAABPlBMVEX///8AAADxeVLl9fvR7PXvcU/wdVG30OzsaFLxelK0tLR5eXmNjY3n7/izzuvQ7/lfX1/ydk2/1e7q6urg4OD29vbub1Lo6OjsZE3++PbQ0NDa2tr5+flOTk7talIqKird7/jV6PX4rIbExMQYGBiXl5dERET4xbX62dHw9foODg6oqKhtbW0iIiKDg4PJ3/E4ODienp7GxsbyckdUVFT98O3qW0Pwa0bV5PUmJia5ubn4y8T2v7ZGRkbE2/DU4eT2oHn0q6DtdGDvgm/jl4zcxr/0knLk/f+zXD/ygl70mHv3uqj2rpn5pYz618/lp5TfvbPoknr0k2zjrZ7gpZ7xlIbjk4fhoprds6/bvrzvh3btc2DkrZzeck6snZlfLx9kQTWDPSQsGhKSTDRIJxubUDfQakjNsLbFu8v0aTZBGK3lAAAS4UlEQVR4nO2d+V/aSB/HgwoRUDAcNUA8WC8uBYQgFcWKlRYRbN2lu9s+97HPs///P/DMTJK5Mgmh7QrPi3x+eJ6VDCR553vNkakk+fLly5cvX758+fLly5cvX758+fK1tNKKm22o/GZRm/e1/L8JsuvKMVmWY1Dgf+Vu2+foVYBeAtBLJLrVajufz7fb1Wo3IcOP2vnivK9u4aVtQliJan5/ldX+fr4Kj3TzviW6qNhOAH+10SMY88C3E+3NeV/noqpYTcQSzvhMiLBR12coULEKzG8KPkPAEGWfoU3Af73xQwyBHbb9eEhrMyEnPPMzGMqyb4ZEbVnOz8IPqirLvhmaKnZncGCifWC3fnkIVUzE2hQYUBNiRlgOZhjzPVlCIZD2YOiYRQBvjZcIYx54/7yvf+7Kx9gUAgmu2vBZFG0IE3J73ncwZ23acrAmFZ0AChjuy7HlRpiPdQkNkBY0u/faxCFcbitkLBD6rzYdIM9wX15ihAxA+IEXE7T5MrDCZc3IxYSMUaDCzp5B4khTzDAvJ5YTodYlZQwEyBkgJHeTy97fZ3M3a3aMtBm2Y4ml7J20CUBUBHL8bu6f+uFGo3FxcRHqP93f8AxphNWlDIVFOUEDXOX4PfWVhrICFQwGAcXBU45jSCNcxlCoJXAWsQPMfWyY+KBCwSCi+DHniBAk5KXz43bM8mEYA2mA8fiHQWOFloEweBH6wJohhXD5/LiY6DoBvPlI2d+K5cgGw483TgiXzo+rMevuJTvAFZswwj6LkCppYt1539OLqih3CcAiA3DAGyDlx24IE7GlMsKqVUtDH7ZbYPj5zZtnoRE6I8zLy2SEJApKnA8/QYDK8w9Az0IjDF48OSTkpYqEbSsKapwPf0AxMPwDUlhohMGLDw5GGKvO+75eTriYBv9N9eWsIOhOMBhaoxESI5TlpZk22bT6cxpXSv9opuE3EOAbcS6Bfiw2wmpsaYb8q1Z3ROLSiJWHwwDhm7ATweAgJzTCfTkx23Vo27lsNpX22DqZvYxkRZ8flOv18sG2118BreuXqW/qQuE8UuTSyAdcCYYHAxYgQ/DiF7ERJmZw43T2rFl7fXp4+HrvOhpJTrmhZKRyvHcYCBxeswzT52fHe6UAUOn1dfRgysPQshs78FeATmuVctLzxfLCTiwxUXAt/iwqBUUE++J07L1rl904DdA6jB64MDyIlkjLc/J57miP+ZXA642c868kyzts61L03Lm1q9oyNkEmEedcADKpJHiRExphXvaWjbejhwFepS2Rh0Jlt0p0w6ZlaOmjU9uvBF5HneywfGxvXaq4EHdRNyHMI5QTTyUoLmj2E14WMaSP7LeCtCFyq/QG3yxlHDgQ8IM6jYhOmtsRtw7UvYZhS8V2vihXRXnErKa9EXwSDzB05XZ+WlmdrDjcCzAvO8Jk09bKsNV6SfAD5pOwnzSy59h6azaExYQsW6uMivy49EfvXswGQmyEVbh43T0WppzvPBCo8Z6cFdw5TLqa82OAUPgnUXdrXZvJkzfhLZp9Yi4Tr930PRMM3t0ICebhz7uWNClBNKLvJsW0zgkAVkDw0c5cfyVQmQFgIHDssRAiBM1qUGMzsUEwBAWqmSkEB+Jxwv1pBJM195sJ7NDmsy1ovQMZ22IjrzP6pJfTWu/M4MiIYFcYBgHB4KvddajdVyE7w2Dw1atdeHx395UTwVV5CkHe+UqnfFaOksY2Vy2dHm9AezngPj+s1fi0UiY/wxtyqVZ77QZ8FoL0CoV4/L63vq4aAphCNoKQnnl0vZcVE0y4E4ww131dz20nt3ORLebTA9y6zHy+VQatkYVuM5Hg+Ah+nsyVWYPFtsw+h72NLGicTDme1BNBnIqpRBJf+6kF+PQmt7e3kx6k9IoF+Ari272bTD7Do+q6uFvSdSWYop99hWSNFB3W9qzSOslYCRXuaR/euSSfn9N5G4dC+qnVyqRuz0WpA6czEYwJCMbXPqlq666jZ0CjjH7Va3EIAcBW71bXM5mMXpi0gCUyCDHBmBtB+tbLTB+Evs2IvXWJ4sSQjTJZN0k9iUPrAVEGu8OmDNrGhUXkFIJsKgZQvlxRDa+AoRGE4V1gddRhfaKut36Oz2iD1K3v8f2pHAlkZlVIhS82Q1O2c8SfgoJSsX0S5TuOWXLSHa+dZOTFbRvB+C8AWIFp2QHRLhjGFqiud+ijmVuAkIqFdEHoSJC6mUvbQcoKs3xrpkpMk3hnQyJJlBUiJmkSBY/tGZc6qdcuMiKY5wnGc7vqboFr2gGxMGQgDIEYyB++bal3JCF7IZgmwdtmO8y9G5mReF+ZaUdqE1Hwok6CvpbCuf5QVDjzJ50usQ3G37ZUy0fTOFZ8svw4DExwaH26bT7JTI8OhV4I5nAeEVgDuFfstXvwT+LyXLVGwqMwdp3jw1vwT2Jlgr4eOCk26D2Hq+YljIPxm3W1lzEalI9rTfNh6V/UXdME1Tvd+CzbrB2bF95R1buZ4iCp4srC4yS+QWSXDq2JkR2LQxd+ELU0/aOn4qEfclKPgZCqZiiCv7Zapo2h/s9rEyGIdTAShoPrLdNCsyXy7PXPKomEXgjiIZm9lPB4Ft8MvFliaqwJbmNCQqOiunDoNrCNNcWticl6LAmF9WD8Z7VlhDnNCD51ozGIhK/CyIlbpgkaYePY+ONWbf0yC8HmlJtJ45uBjwgbB+deqSmWTB5ECTLB4xgOcY6c1OGB8GL7JFY9+MlyYjPPmT9W+IIIroA0Y37d8KBD449Oq/WWJ+jWJ8HXGnVogO3lCJ8qYBslyGFADtmT5A6Q8LVpvCXcesuhASdxr26i3plhcAvbgAQD4fquQbBnfr1M31OhpX7iCbr1i6c+7R26ASbI8cYmdugwpk0yUoQ2MXv9ZAi3noVgAo8s7PMEUW6yDF7v8QTT0Le2zGxNEfQ0NvN9CBIbdCKIy+QIbYNOnQ7cehaCMh7dWuW8GATqSB0/LbsXS9plPWIlrXFLfcsRdB0fDDgwwcJe7EaQxEEHq8KIETT8h6gE9XRVnBDBGFdSx39uqbqgMeiWcJmE0VULZxK6HHQkiE1saiZxI7h9OoUJqQAhwWlOyvL2oE1ogmRoQcPVzJWgMaxmjIK61bEfzUxINUOnYg/VjHhYndSLbgST+EE4THA0GSb4Z/bEA9GkaBKXWDZpVVDMdEkgNCtqVf1sb6v31PWQWVFP7IcLu+oXrqDeR7MwTlNN3itqN4IaaSYMhNTwBSRIBviFJ02TKTzPixiKRakdW+XcmOrVEd22qF6d3QgnqvoTHwblqua8MRLVbRPZAzVQ4kaQ8tJr0Vmo8VRIkHhpTXRSArgiOOooas2ChkcWenyoK+CRBdApsR/utNQvOT4Mus7TUcMkoqhN3borQZJrRaHrkpoKhIep2VJBTU1qR+8DhFB43Yxk1TNwdItjNP5i9Eis0a079jDIMq1f7fW064Q7NV5lzwL06KsrQQr1oS0dZ6lfMaBQ83R1vjU1kzXTfB1ctIDnO3G3pKXe0Z7aWadHWFd2AUJ6fOtqXW3hchpXg1PWbqWpWSW+JmQmJN0JUpRKXGf2nJlUQgRJ7g6UuOeWo2YFPPbpLNmXHqFRfvVTwSgLM4UJM0S9Eg7BQepb63DnM2j8Ns+b4NT1g/Ryjy06ISfZeR93gvTUUemMGlJJb7Cz+YZj0sZdoRJu+pKe35t1HZfVLSFGGF/7CU7D3d1eXV29vWuhmSZmwhNOlKifweHhpAenSX5e401wdeqqmTQzyRY1l/wlz8+4KU93gnTOAVmpnkVVTTpX52eXDYJp+uPSRhax0nIRZiGNU73tKLyOWsI9OzjbqbrOdq6TyVD17n7NNrrqYR01N/dd26pEo1vXtoVcUwhK7NKl0x3wK5Ud+/KGiOikh8ewdZOl3Zx1+RGzBhNPGsefgnhK3cYPLmMgE/IXP5IpEmquePpafqdlW7MRlOzLkUSKeD2pw4Clq/D7JBI13/TkuuoDfhgyDzc+2CeZPL3U5L5iyDPBKatvOILa1pSG3ufbiZh3miw//pPr6jdaFMHVWUzQHN35ZoJS0gvCiLeTnn4NQOq9Og37cfxH7wTvbWnE63t1mgeE0wlKKQ+OHPF0UqeR2mkqJsgrJRZB9zWsQoJkHb/3N5oiDotPA7gWYcaonYbnHRfA4Z+huhla2emkW18RAw2RPQKKq7MT5AdlZnq/OCe2iDMc8ZmZJsfu1qXQDHfKe8JvZoUR+PXR178VoVEbfZhV9T1D0G05ZsPsEWOA+7FZ3nHXuMXlUM0s7sPuwDbWGIvLcox0ma8AA7VIeltMUNLOr/nWh2ez9eU4bcpku6N9O8EBu6JVCdPpWTFWK5Dvz/xW4na9Qm7/tLmBRqoMhBWD2Tk6fuzuZJdnO/hZlK7PYE5IORCU4DsYTeLMtUp55iqQU5vaNA8ijGcpgkq/0Kf+bIQ7A4pgGBHE3wY+PPtLiVoqe1nfONs4ipznLDtLH2wcnVv3tX20tVWeaiTJ3OXRWaUSPbrMGW1dCMLWB3XYeiOS3f4OG0N0Y3kaIfs+yZ9z0jBsfqAoj5kUVWQrA8YCF2u/mRw2Sqfpue8nes8jgDB+wxD8iyQVRnDDmYYyGkvSX4IcQQLw5fc8ykXKTu/vkKHww699Y2kGbSborfPiN7SfrvwVOoU+PjkZw5HB5N8ovEqfBrj/0nvaGoVM0yFCksUOX12nzCA6mwAUTF/u7/RMjhb9O03wgd1q5oU3SjEZXYuzNE4VwkmA7648g5DZpOK9lRQl1J19T6fijxTAF99/EI+wCkdFyUC4xwngb1We3kCPfrczHP5H4LScS8ORN1B3lejBBmVEWeCL74HpOkGZIzXSC4RBJGof1ndMCaj8E8aSZqXShOXBP2kHV55wEpnDDpikRyOYMSbDMIffWu15FtkL+N0DU0SH/0Wq93/9mT7S+BMuY+awvwe1+JnvsFBrgO3zSn+cNq39qN+N2I7xe3I575kDjSuzkI7NY+vGJDVI0GSWP+QogC+SiS1Ze6K/e2QJKu/N4rT0b7aTrHwwckisO5fNPZg3o6LWPg1aiploekEThDL25X/Hv2Cs/PZX5MKsBZoE57cvf5oZcy5t1SMHB5d1duyl9tIXhf5tiHeCIdbf3r//zfahcg9TyPw2X90OcCrxQz0O687/SGnw3ycRDRAKB7nuu7G5/sMQl26veUP98V1igUA0/I/XIdb/yvOJgFhld4AvHASxir82BLOcNoVCg+zqnC4RK2LfLYT49EyriL6rhg1jMnMKwFBIsCDzpeW01Yd9Mc0LKtMLWRPCrvxCQWvh+jyVrIiDYfTrtzL6Zl2pJiFHhubBkGhV8MvrXLCHTHN+HixJhd4uhiRgGCJHQvYFmXNROlthVsvsVc7nWCDonZ71IiKlFeEn8FXFzkIwlJKXR1E0HFOrHEXm57+ZwtWktwtX/dqAsbLMcX0dbrkwHC8ERS2ZAkq+2FCMTZnOpKe2WnBN4K4xHzcYiCkaR2CDXdAYfuXL5GohIM5ZGV0vjK9uJ5PJ2BjeMjiJrK+PjiijMWh8ezUu6Lq+AFl5kTRCBPt9p1rGONIYTv+lJVUGEVQeHhxWfJhHfILOekQER4gTu40o+ss80jiZ93UuroaI4KOI4AARHPkE3TU0nBRxeqAXyigohyiPyEgb43lf5+LqxDAxSFAZMQQf+oiggZjfe8YXlkGwgwg+cgTRZyc+QXd1wggQIjhkCI6MzwyCfhXtqDEiqCNaJyKCY5+guwqoZjEIdliCj4hgARH0+yGOQgTDqLAOjxmCj8MGzNKowcq8L3OBpUNqA4NggV5FA3IIIqgjxPO+zAUWJKg8I4IDnSU4xgSVwbwvc4GlDxRQPKPOHU+wgAhmIOL+vC9zgZUB1JQRJKg8mwSNzp3yqCuoOwcJPsz7MhdZhGA/0zeGGYz/e9SNDrHRwJejHgCgR0TwwSBodFAgwTAiaDTw5SRIrTE0CEqIYLgAkzDMIQNEcOTboJsKD9DcxojgyCA40AsGQQT3RII8QVqZ95UuovTCsN9QVsKNhwwc5AKuCkcJgTOjEhAThNl6RWn0hwW/Y0JLPxkNlAZSX0dD1RbBEfJsSPABEZQKA6Od0h8tyJTxAkjvDIfDE0PQPwsDK2kgZo+IoJGgIbOC2RR8aewbol2ZwhCW1Q3dIFgwBg0BQTgso/RPfLtzVkYvdB77YeCgijIYSwbBjDHkBafnTsLgQEMJPzyO/WligYDtjfrP/f7z83N/BC0N9ZFhFxj9Rx8gKwwfwGHY6GF04mcSmzJE8M8xSiCoeDaSss628QG6Su+MGijsoahXgG9qKyujxVhotPgC7vwwUEAyURrPJrLxAPFcGYxO/FraXfoYlNW//w7LvTDAhT01MxwNwrBg/P135cEvpl2kF8bjginWZUGiNgVa+AR9+fLly5cvX758+fLly5cvX758/dH6H/xxZfSENtDlAAAAAElFTkSuQmCC;" parent="MzWoeXY6LRH6kOnjoR-k-3" vertex="1">
          <mxGeometry width="286.24" height="139.9990031152648" as="geometry" />
        </mxCell>
        <mxCell id="MzWoeXY6LRH6kOnjoR-k-2" value="Workflow" style="text;html=1;strokeColor=none;fillColor=none;align=center;verticalAlign=middle;whiteSpace=wrap;rounded=0;fontStyle=1;fontSize=20;" parent="MzWoeXY6LRH6kOnjoR-k-3" vertex="1">
          <mxGeometry x="222.92834890965733" y="107.00636942675159" width="53.50280373831776" height="26.751592356687897" as="geometry" />
        </mxCell>
        <mxCell id="MzWoeXY6LRH6kOnjoR-k-4" value="" style="shape=image;verticalLabelPosition=bottom;labelBackgroundColor=default;verticalAlign=top;aspect=fixed;imageAspect=0;image=https://png.pngtree.com/png-vector/20190514/ourlarge/pngtree-yaml-file-format-icon-design-png-image_1041774.jpg;" parent="1" vertex="1">
          <mxGeometry x="30" y="180" width="110" height="110" as="geometry" />
        </mxCell>
        <mxCell id="MzWoeXY6LRH6kOnjoR-k-5" value="" style="endArrow=none;html=1;rounded=0;exitX=0.5;exitY=1;exitDx=0;exitDy=0;" parent="1" source="MzWoeXY6LRH6kOnjoR-k-7" target="tYn8lOLBMGWMNOhVMFbC-2" edge="1">
          <mxGeometry width="50" height="50" relative="1" as="geometry">
            <mxPoint x="380" y="600" as="sourcePoint" />
            <mxPoint x="85" y="1210" as="targetPoint" />
          </mxGeometry>
        </mxCell>
        <mxCell id="MzWoeXY6LRH6kOnjoR-k-26" style="edgeStyle=orthogonalEdgeStyle;rounded=0;orthogonalLoop=1;jettySize=auto;html=1;entryX=0;entryY=0.5;entryDx=0;entryDy=0;" parent="1" source="MzWoeXY6LRH6kOnjoR-k-7" target="MzWoeXY6LRH6kOnjoR-k-11" edge="1">
          <mxGeometry relative="1" as="geometry" />
        </mxCell>
        <mxCell id="MzWoeXY6LRH6kOnjoR-k-27" style="edgeStyle=orthogonalEdgeStyle;rounded=0;orthogonalLoop=1;jettySize=auto;html=1;entryX=0;entryY=0.5;entryDx=0;entryDy=0;" parent="1" source="MzWoeXY6LRH6kOnjoR-k-7" target="MzWoeXY6LRH6kOnjoR-k-21" edge="1">
          <mxGeometry relative="1" as="geometry" />
        </mxCell>
        <mxCell id="MzWoeXY6LRH6kOnjoR-k-11" value="ASC" style="swimlane;horizontal=0;whiteSpace=wrap;html=1;" parent="1" vertex="1">
          <mxGeometry x="320" y="320" width="290" height="110" as="geometry" />
        </mxCell>
        <mxCell id="MzWoeXY6LRH6kOnjoR-k-12" style="edgeStyle=orthogonalEdgeStyle;rounded=0;orthogonalLoop=1;jettySize=auto;html=1;entryX=0;entryY=0.5;entryDx=0;entryDy=0;entryPerimeter=0;" parent="MzWoeXY6LRH6kOnjoR-k-11" source="MzWoeXY6LRH6kOnjoR-k-9" target="MzWoeXY6LRH6kOnjoR-k-8" edge="1">
          <mxGeometry relative="1" as="geometry" />
        </mxCell>
        <mxCell id="MzWoeXY6LRH6kOnjoR-k-15" value="&amp;nbsp;save_result&amp;nbsp;" style="edgeLabel;html=1;align=center;verticalAlign=middle;resizable=0;points=[];" parent="MzWoeXY6LRH6kOnjoR-k-12" connectable="0" vertex="1">
          <mxGeometry x="-0.1036" y="3" relative="1" as="geometry">
            <mxPoint as="offset" />
          </mxGeometry>
        </mxCell>
        <mxCell id="MzWoeXY6LRH6kOnjoR-k-8" value="LDM" style="shape=cylinder3;whiteSpace=wrap;html=1;boundedLbl=1;backgroundOutline=1;size=15;" parent="MzWoeXY6LRH6kOnjoR-k-11" vertex="1">
          <mxGeometry x="220" y="15" width="60" height="80" as="geometry" />
        </mxCell>
        <UserObject label="h" link="https://github.com/synspective/GAMMA_Scripts/blob/release/20230426/steps/common/save_result.py#L31-L51" linkTarget="_blank" id="K8FMeHhQiLaidLFwbS4F-87">
          <mxCell style="dashed=0;outlineConnect=0;html=1;align=center;labelPosition=center;verticalLabelPosition=bottom;verticalAlign=top;shape=mxgraph.weblogos.github" parent="MzWoeXY6LRH6kOnjoR-k-11" vertex="1">
            <mxGeometry x="140" y="60" width="37" height="37" as="geometry" />
          </mxCell>
        </UserObject>
        <mxCell id="MzWoeXY6LRH6kOnjoR-k-9" value="" style="shape=image;html=1;verticalAlign=top;verticalLabelPosition=bottom;labelBackgroundColor=#ffffff;imageAspect=0;aspect=fixed;image=https://cdn3.iconfinder.com/data/icons/dompicon-glyph-file-format-2/256/file-csv-format-type-128.png" parent="MzWoeXY6LRH6kOnjoR-k-11" vertex="1">
          <mxGeometry x="30" y="20" width="70" height="70" as="geometry" />
        </mxCell>
        <mxCell id="MzWoeXY6LRH6kOnjoR-k-21" value="DSC" style="swimlane;horizontal=0;whiteSpace=wrap;html=1;" parent="1" vertex="1">
          <mxGeometry x="320" y="430" width="290" height="110" as="geometry" />
        </mxCell>
        <mxCell id="MzWoeXY6LRH6kOnjoR-k-22" style="edgeStyle=orthogonalEdgeStyle;rounded=0;orthogonalLoop=1;jettySize=auto;html=1;entryX=0;entryY=0.5;entryDx=0;entryDy=0;entryPerimeter=0;" parent="MzWoeXY6LRH6kOnjoR-k-21" source="MzWoeXY6LRH6kOnjoR-k-24" target="MzWoeXY6LRH6kOnjoR-k-25" edge="1">
          <mxGeometry relative="1" as="geometry" />
        </mxCell>
        <mxCell id="MzWoeXY6LRH6kOnjoR-k-23" value="&amp;nbsp;save_result&amp;nbsp;" style="edgeLabel;html=1;align=center;verticalAlign=middle;resizable=0;points=[];" parent="MzWoeXY6LRH6kOnjoR-k-22" connectable="0" vertex="1">
          <mxGeometry x="-0.1036" y="3" relative="1" as="geometry">
            <mxPoint as="offset" />
          </mxGeometry>
        </mxCell>
        <mxCell id="MzWoeXY6LRH6kOnjoR-k-24" value="" style="shape=image;html=1;verticalAlign=top;verticalLabelPosition=bottom;labelBackgroundColor=#ffffff;imageAspect=0;aspect=fixed;image=https://cdn3.iconfinder.com/data/icons/dompicon-glyph-file-format-2/256/file-csv-format-type-128.png" parent="MzWoeXY6LRH6kOnjoR-k-21" vertex="1">
          <mxGeometry x="30" y="20" width="70" height="70" as="geometry" />
        </mxCell>
        <mxCell id="MzWoeXY6LRH6kOnjoR-k-25" value="LDM" style="shape=cylinder3;whiteSpace=wrap;html=1;boundedLbl=1;backgroundOutline=1;size=15;" parent="MzWoeXY6LRH6kOnjoR-k-21" vertex="1">
          <mxGeometry x="220" y="15" width="60" height="80" as="geometry" />
        </mxCell>
        <UserObject label="" link="https://github.com/synspective/GAMMA_Scripts/blob/release/20230426/steps/common/save_result.py#L31-L51" linkTarget="_blank" id="K8FMeHhQiLaidLFwbS4F-86">
          <mxCell style="dashed=0;outlineConnect=0;html=1;align=center;labelPosition=center;verticalLabelPosition=bottom;verticalAlign=top;shape=mxgraph.weblogos.github" parent="MzWoeXY6LRH6kOnjoR-k-21" vertex="1">
            <mxGeometry x="140" y="61" width="37" height="37" as="geometry" />
          </mxCell>
        </UserObject>
        <mxCell id="MzWoeXY6LRH6kOnjoR-k-28" value="" style="endArrow=none;html=1;rounded=0;exitX=0.5;exitY=1;exitDx=0;exitDy=0;" parent="1" source="MzWoeXY6LRH6kOnjoR-k-4" target="MzWoeXY6LRH6kOnjoR-k-7" edge="1">
          <mxGeometry width="50" height="50" relative="1" as="geometry">
            <mxPoint x="85" y="290" as="sourcePoint" />
            <mxPoint x="85.5555419921875" y="790" as="targetPoint" />
          </mxGeometry>
        </mxCell>
        <mxCell id="MzWoeXY6LRH6kOnjoR-k-7" value="Step6" style="rounded=1;whiteSpace=wrap;html=1;" parent="1" vertex="1">
          <mxGeometry x="50" y="405" width="70" height="60" as="geometry" />
        </mxCell>
        <mxCell id="MzWoeXY6LRH6kOnjoR-k-30" value="" style="shape=flexArrow;endArrow=classic;html=1;rounded=0;" parent="1" edge="1">
          <mxGeometry width="50" height="50" relative="1" as="geometry">
            <mxPoint x="20" y="300" as="sourcePoint" />
            <mxPoint x="20" y="380" as="targetPoint" />
          </mxGeometry>
        </mxCell>
        <mxCell id="MzWoeXY6LRH6kOnjoR-k-6" value="Step..." style="rounded=1;whiteSpace=wrap;html=1;" parent="1" vertex="1">
          <mxGeometry x="50" y="320" width="70" height="60" as="geometry" />
        </mxCell>
        <mxCell id="MzWoeXY6LRH6kOnjoR-k-42" style="edgeStyle=orthogonalEdgeStyle;rounded=0;orthogonalLoop=1;jettySize=auto;html=1;" parent="1" source="MzWoeXY6LRH6kOnjoR-k-31" target="MzWoeXY6LRH6kOnjoR-k-32" edge="1">
          <mxGeometry relative="1" as="geometry" />
        </mxCell>
        <mxCell id="MzWoeXY6LRH6kOnjoR-k-43" style="edgeStyle=orthogonalEdgeStyle;rounded=0;orthogonalLoop=1;jettySize=auto;html=1;" parent="1" source="MzWoeXY6LRH6kOnjoR-k-31" target="MzWoeXY6LRH6kOnjoR-k-37" edge="1">
          <mxGeometry relative="1" as="geometry" />
        </mxCell>
        <mxCell id="MzWoeXY6LRH6kOnjoR-k-31" value="Step7" style="rounded=1;whiteSpace=wrap;html=1;" parent="1" vertex="1">
          <mxGeometry x="50" y="740" width="70" height="60" as="geometry" />
        </mxCell>
        <mxCell id="MzWoeXY6LRH6kOnjoR-k-32" value="Vertical" style="swimlane;horizontal=0;whiteSpace=wrap;html=1;" parent="1" vertex="1">
          <mxGeometry x="320" y="670" width="480" height="110" as="geometry" />
        </mxCell>
        <mxCell id="MzWoeXY6LRH6kOnjoR-k-33" style="edgeStyle=orthogonalEdgeStyle;rounded=0;orthogonalLoop=1;jettySize=auto;html=1;entryX=0;entryY=0.5;entryDx=0;entryDy=0;entryPerimeter=0;" parent="MzWoeXY6LRH6kOnjoR-k-32" source="MzWoeXY6LRH6kOnjoR-k-35" target="MzWoeXY6LRH6kOnjoR-k-36" edge="1">
          <mxGeometry relative="1" as="geometry" />
        </mxCell>
        <mxCell id="MzWoeXY6LRH6kOnjoR-k-34" value="&amp;nbsp;save_result&amp;nbsp;" style="edgeLabel;html=1;align=center;verticalAlign=middle;resizable=0;points=[];" parent="MzWoeXY6LRH6kOnjoR-k-33" connectable="0" vertex="1">
          <mxGeometry x="-0.1036" y="3" relative="1" as="geometry">
            <mxPoint as="offset" />
          </mxGeometry>
        </mxCell>
        <mxCell id="MzWoeXY6LRH6kOnjoR-k-36" value="LDM" style="shape=cylinder3;whiteSpace=wrap;html=1;boundedLbl=1;backgroundOutline=1;size=15;" parent="MzWoeXY6LRH6kOnjoR-k-32" vertex="1">
          <mxGeometry x="400" y="15" width="60" height="80" as="geometry" />
        </mxCell>
        <mxCell id="MzWoeXY6LRH6kOnjoR-k-44" value="projected_disp_ts" style="rounded=1;whiteSpace=wrap;html=1;" parent="MzWoeXY6LRH6kOnjoR-k-32" vertex="1">
          <mxGeometry x="40" y="25" width="150" height="60" as="geometry" />
        </mxCell>
        <mxCell id="MzWoeXY6LRH6kOnjoR-k-35" value="" style="shape=image;html=1;verticalAlign=top;verticalLabelPosition=bottom;labelBackgroundColor=#ffffff;imageAspect=0;aspect=fixed;image=https://cdn3.iconfinder.com/data/icons/dompicon-glyph-file-format-2/256/file-csv-format-type-128.png" parent="MzWoeXY6LRH6kOnjoR-k-32" vertex="1">
          <mxGeometry x="170" y="20" width="70" height="70" as="geometry" />
        </mxCell>
        <UserObject label="" link="https://github.com/synspective/GAMMA_Scripts/blob/release/20230426/steps/common/save_result.py#L54-L102" linkTarget="_blank" id="K8FMeHhQiLaidLFwbS4F-84">
          <mxCell style="dashed=0;outlineConnect=0;html=1;align=center;labelPosition=center;verticalLabelPosition=bottom;verticalAlign=top;shape=mxgraph.weblogos.github" parent="MzWoeXY6LRH6kOnjoR-k-32" vertex="1">
            <mxGeometry x="300" y="60" width="37" height="37" as="geometry" />
          </mxCell>
        </UserObject>
        <mxCell id="MzWoeXY6LRH6kOnjoR-k-37" value="Horizontal" style="swimlane;horizontal=0;whiteSpace=wrap;html=1;" parent="1" vertex="1">
          <mxGeometry x="320" y="780" width="480" height="110" as="geometry" />
        </mxCell>
        <mxCell id="MzWoeXY6LRH6kOnjoR-k-38" style="edgeStyle=orthogonalEdgeStyle;rounded=0;orthogonalLoop=1;jettySize=auto;html=1;entryX=0;entryY=0.5;entryDx=0;entryDy=0;entryPerimeter=0;" parent="MzWoeXY6LRH6kOnjoR-k-37" source="MzWoeXY6LRH6kOnjoR-k-40" target="MzWoeXY6LRH6kOnjoR-k-41" edge="1">
          <mxGeometry relative="1" as="geometry" />
        </mxCell>
        <mxCell id="MzWoeXY6LRH6kOnjoR-k-39" value="&amp;nbsp;save_result&amp;nbsp;" style="edgeLabel;html=1;align=center;verticalAlign=middle;resizable=0;points=[];" parent="MzWoeXY6LRH6kOnjoR-k-38" connectable="0" vertex="1">
          <mxGeometry x="-0.1036" y="3" relative="1" as="geometry">
            <mxPoint as="offset" />
          </mxGeometry>
        </mxCell>
        <mxCell id="MzWoeXY6LRH6kOnjoR-k-41" value="LDM" style="shape=cylinder3;whiteSpace=wrap;html=1;boundedLbl=1;backgroundOutline=1;size=15;" parent="MzWoeXY6LRH6kOnjoR-k-37" vertex="1">
          <mxGeometry x="400" y="15" width="60" height="80" as="geometry" />
        </mxCell>
        <mxCell id="MzWoeXY6LRH6kOnjoR-k-46" value="projected_disp_ts" style="rounded=1;whiteSpace=wrap;html=1;" parent="MzWoeXY6LRH6kOnjoR-k-37" vertex="1">
          <mxGeometry x="40" y="25" width="150" height="60" as="geometry" />
        </mxCell>
        <mxCell id="MzWoeXY6LRH6kOnjoR-k-40" value="" style="shape=image;html=1;verticalAlign=top;verticalLabelPosition=bottom;labelBackgroundColor=#ffffff;imageAspect=0;aspect=fixed;image=https://cdn3.iconfinder.com/data/icons/dompicon-glyph-file-format-2/256/file-csv-format-type-128.png" parent="MzWoeXY6LRH6kOnjoR-k-37" vertex="1">
          <mxGeometry x="170" y="20" width="70" height="70" as="geometry" />
        </mxCell>
        <UserObject label="" link="https://github.com/synspective/GAMMA_Scripts/blob/release/20230426/steps/common/save_result.py#L54-L102" linkTarget="_blank" id="K8FMeHhQiLaidLFwbS4F-85">
          <mxCell style="dashed=0;outlineConnect=0;html=1;align=center;labelPosition=center;verticalLabelPosition=bottom;verticalAlign=top;shape=mxgraph.weblogos.github" parent="MzWoeXY6LRH6kOnjoR-k-37" vertex="1">
            <mxGeometry x="300" y="61" width="37" height="39" as="geometry" />
          </mxCell>
        </UserObject>
        <mxCell id="MzWoeXY6LRH6kOnjoR-k-48" value="&lt;span style=&quot;font-size: 10px;&quot;&gt;&lt;b&gt;ASC..., DSC..., timestamps..., Vert_Slope&lt;/b&gt;&lt;/span&gt;" style="shape=callout;whiteSpace=wrap;html=1;perimeter=calloutPerimeter;align=left;spacingLeft=2;verticalAlign=top;" parent="1" vertex="1">
          <mxGeometry x="332.5" y="630" width="215" height="65" as="geometry" />
        </mxCell>
        <mxCell id="MzWoeXY6LRH6kOnjoR-k-74" value="decomp_dsc" style="swimlane;fontStyle=1;align=center;verticalAlign=middle;childLayout=stackLayout;horizontal=1;startSize=30;horizontalStack=0;resizeParent=0;resizeLast=1;container=0;collapsible=0;rounded=0;arcSize=30;swimlaneFillColor=#FFFFFF;dropTarget=0;" parent="1" vertex="1">
          <mxGeometry x="170" y="750" width="110" height="60" as="geometry" />
        </mxCell>
        <mxCell id="MzWoeXY6LRH6kOnjoR-k-75" value="False (default)" style="text;html=1;align=center;verticalAlign=middle;spacingLeft=4;spacingRight=4;whiteSpace=wrap;overflow=hidden;rotatable=0;" parent="MzWoeXY6LRH6kOnjoR-k-74" vertex="1">
          <mxGeometry y="30" width="110" height="30" as="geometry" />
        </mxCell>
        <mxCell id="qkamRe19l6XeqoTvBZQR-4" value="False: ASC Based&lt;br&gt;True: DSC Based" style="shape=callout;whiteSpace=wrap;html=1;perimeter=calloutPerimeter;fontStyle=1;fillColor=#fff2cc;strokeColor=#d6b656;" parent="1" vertex="1">
          <mxGeometry x="175" y="670" width="120" height="80" as="geometry" />
        </mxCell>
        <mxCell id="K8FMeHhQiLaidLFwbS4F-26" style="edgeStyle=orthogonalEdgeStyle;rounded=0;orthogonalLoop=1;jettySize=auto;html=1;" parent="1" source="qkamRe19l6XeqoTvBZQR-5" target="K8FMeHhQiLaidLFwbS4F-6" edge="1">
          <mxGeometry relative="1" as="geometry" />
        </mxCell>
        <mxCell id="qkamRe19l6XeqoTvBZQR-5" value="Step8&lt;br&gt;geojson output" style="rounded=1;whiteSpace=wrap;html=1;" parent="1" vertex="1">
          <mxGeometry x="50" y="950" width="70" height="60" as="geometry" />
        </mxCell>
        <mxCell id="K8FMeHhQiLaidLFwbS4F-3" value="" style="rounded=0;whiteSpace=wrap;html=1;strokeColor=#9e9a9a;" parent="1" vertex="1">
          <mxGeometry x="470" y="980" width="440" height="110" as="geometry" />
        </mxCell>
        <mxCell id="K8FMeHhQiLaidLFwbS4F-4" style="edgeStyle=orthogonalEdgeStyle;rounded=0;orthogonalLoop=1;jettySize=auto;html=1;" parent="1" source="K8FMeHhQiLaidLFwbS4F-5" target="K8FMeHhQiLaidLFwbS4F-9" edge="1">
          <mxGeometry relative="1" as="geometry">
            <Array as="points">
              <mxPoint x="350.74" y="955" />
              <mxPoint x="350.74" y="955" />
            </Array>
          </mxGeometry>
        </mxCell>
        <mxCell id="K8FMeHhQiLaidLFwbS4F-5" value="Params Check" style="swimlane;whiteSpace=wrap;html=1;" parent="1" vertex="1">
          <mxGeometry x="159.26" y="925" width="151.48" height="90" as="geometry" />
        </mxCell>
        <mxCell id="K8FMeHhQiLaidLFwbS4F-6" value="&lt;ul&gt;&lt;li&gt;uuid&lt;/li&gt;&lt;li&gt;type name&lt;/li&gt;&lt;/ul&gt;" style="text;html=1;align=left;verticalAlign=middle;resizable=0;points=[];autosize=1;strokeColor=none;fillColor=none;" parent="K8FMeHhQiLaidLFwbS4F-5" vertex="1">
          <mxGeometry x="-7.105427357601002e-15" y="20" width="120" height="70" as="geometry" />
        </mxCell>
        <mxCell id="K8FMeHhQiLaidLFwbS4F-28" style="edgeStyle=orthogonalEdgeStyle;rounded=0;orthogonalLoop=1;jettySize=auto;html=1;" parent="1" source="K8FMeHhQiLaidLFwbS4F-9" target="K8FMeHhQiLaidLFwbS4F-11" edge="1">
          <mxGeometry relative="1" as="geometry" />
        </mxCell>
        <mxCell id="K8FMeHhQiLaidLFwbS4F-9" value="CSV Outputs" style="rounded=1;whiteSpace=wrap;html=1;" parent="1" vertex="1">
          <mxGeometry x="390.74" y="925" width="120" height="60" as="geometry" />
        </mxCell>
        <mxCell id="K8FMeHhQiLaidLFwbS4F-10" value="&lt;div&gt;To create Geojson efficiently, first create a CSV file of the data you need&lt;/div&gt;&lt;div&gt;(To reduce the number of DB connections in tremendous parallel processings)&lt;/div&gt;" style="text;strokeColor=none;fillColor=none;spacing=5;spacingTop=-20;overflow=hidden;rounded=0;verticalAlign=middle;labelPosition=center;verticalLabelPosition=middle;align=left;whiteSpace=wrap;html=1;" parent="1" vertex="1">
          <mxGeometry x="100.74000000000001" y="1045" width="210" height="80" as="geometry" />
        </mxCell>
        <mxCell id="K8FMeHhQiLaidLFwbS4F-30" style="edgeStyle=orthogonalEdgeStyle;rounded=0;orthogonalLoop=1;jettySize=auto;html=1;entryX=0;entryY=0.5;entryDx=0;entryDy=0;" parent="1" source="K8FMeHhQiLaidLFwbS4F-12" target="K8FMeHhQiLaidLFwbS4F-31" edge="1">
          <mxGeometry relative="1" as="geometry">
            <mxPoint x="760" y="1030" as="targetPoint" />
          </mxGeometry>
        </mxCell>
        <mxCell id="K8FMeHhQiLaidLFwbS4F-12" value="" style="shape=image;html=1;verticalAlign=top;verticalLabelPosition=bottom;labelBackgroundColor=#ffffff;imageAspect=0;aspect=fixed;image=https://cdn3.iconfinder.com/data/icons/dompicon-glyph-file-format-2/256/file-csv-format-type-128.png" parent="1" vertex="1">
          <mxGeometry x="620" y="990" width="80" height="80" as="geometry" />
        </mxCell>
        <mxCell id="K8FMeHhQiLaidLFwbS4F-13" style="edgeStyle=orthogonalEdgeStyle;rounded=0;orthogonalLoop=1;jettySize=auto;html=1;" parent="1" source="K8FMeHhQiLaidLFwbS4F-14" target="K8FMeHhQiLaidLFwbS4F-12" edge="1">
          <mxGeometry relative="1" as="geometry" />
        </mxCell>
        <mxCell id="K8FMeHhQiLaidLFwbS4F-14" value="LDM" style="shape=cylinder3;whiteSpace=wrap;html=1;boundedLbl=1;backgroundOutline=1;size=15;" parent="1" vertex="1">
          <mxGeometry x="480" y="990" width="60" height="80" as="geometry" />
        </mxCell>
        <mxCell id="K8FMeHhQiLaidLFwbS4F-15" value="" style="shape=image;html=1;verticalAlign=top;verticalLabelPosition=bottom;labelBackgroundColor=#ffffff;imageAspect=0;aspect=fixed;image=https://cdn1.iconfinder.com/data/icons/hawcons/32/699251-icon-24-file-sql-128.png" parent="1" vertex="1">
          <mxGeometry x="540" y="980" width="60" height="60" as="geometry" />
        </mxCell>
        <mxCell id="K8FMeHhQiLaidLFwbS4F-31" value="" style="strokeColor=#dddddd;shadow=1;strokeWidth=1;rounded=1;absoluteArcSize=1;arcSize=2;" parent="1" vertex="1">
          <mxGeometry x="750" y="1000" width="150" height="60" as="geometry" />
        </mxCell>
        <mxCell id="K8FMeHhQiLaidLFwbS4F-32" value="Cloud Storage" style="editableCssRules=.*;html=1;fontColor=#999999;shape=image;verticalLabelPosition=middle;labelBackgroundColor=#ffffff;verticalAlign=middle;labelPosition=right;align=left;spacingLeft=20;part=1;points=[];imageAspect=0;image=data:image/svg+xml,PHN2ZyB4bWxucz0iaHR0cDovL3d3dy53My5vcmcvMjAwMC9zdmciIHhtbG5zOnY9Imh0dHBzOi8vdmVjdGEuaW8vbmFubyIgd2lkdGg9IjIwIiBoZWlnaHQ9IjE2IiB2aWV3Qm94PSIwIDAgMjAgMTYiPiYjeGE7CTxzdHlsZSB0eXBlPSJ0ZXh0L2NzcyI+JiN4YTsJLnN0MHtmaWxsOiM0Mjg1ZjQ7fSYjeGE7CS5zdDF7ZmlsbDojNjY5ZGY2O30mI3hhOwkuc3Qye2ZpbGw6I2FlY2JmYTt9JiN4YTsJLnN0M3tmaWxsOiNmZmY7fSYjeGE7CTwvc3R5bGU+JiN4YTsJPHBhdGggY2xhc3M9InN0MiIgZD0iTTAgMGgyMHY3SDB6Ii8+JiN4YTsJPHBhdGggY2xhc3M9InN0MSIgZD0iTTE4IDBoMnY3aC0yeiIvPiYjeGE7CTxwYXRoIGNsYXNzPSJzdDAiIGQ9Ik0xOCA3bDItN2gtMnoiLz4mI3hhOwk8cGF0aCBjbGFzcz0ic3QxIiBkPSJNMCAwaDJ2N0gweiIvPiYjeGE7CTxnIGNsYXNzPSJzdDMiPiYjeGE7CQk8cGF0aCBkPSJNNCAzaDZ2MUg0eiIvPiYjeGE7CQk8cmVjdCB4PSIxMyIgeT0iMiIgd2lkdGg9IjMiIGhlaWdodD0iMyIgcng9IjEuNSIvPiYjeGE7CTwvZz4mI3hhOwk8cGF0aCBjbGFzcz0ic3QyIiBkPSJNMCA5aDIwdjdIMHoiLz4mI3hhOwk8cGF0aCBjbGFzcz0ic3QxIiBkPSJNMTggOWgydjdoLTJ6Ii8+JiN4YTsJPHBhdGggY2xhc3M9InN0MCIgZD0iTTE4IDE2bDItN2gtMnoiLz4mI3hhOwk8cGF0aCBjbGFzcz0ic3QxIiBkPSJNMCA5aDJ2N0gweiIvPiYjeGE7CTxnIGNsYXNzPSJzdDMiPiYjeGE7CQk8cGF0aCBkPSJNNCAxMmg2djFINHoiLz4mI3hhOwkJPHJlY3QgeD0iMTMiIHk9IjExIiB3aWR0aD0iMyIgaGVpZ2h0PSIzIiByeD0iMS41Ii8+JiN4YTsJPC9nPiYjeGE7PC9zdmc+;" parent="K8FMeHhQiLaidLFwbS4F-31" vertex="1">
          <mxGeometry width="30" height="24" relative="1" as="geometry">
            <mxPoint x="15" y="18" as="offset" />
          </mxGeometry>
        </mxCell>
        <UserObject label="Upload Path&lt;br&gt;&lt;span style=&quot;font-weight: normal;&quot;&gt;&amp;lt;Bucket&amp;gt;/land-subsidence/&amp;lt;uuid&amp;gt;/&amp;lt;data_type&amp;gt;/&lt;br&gt;- markers.csv&lt;br&gt;- meshgrid.zXX.csv&lt;br&gt;&lt;/span&gt;" link="https://console.cloud.google.com/storage/browser/syns-mvt-geojson-stg/land-subsidence/4294967296001/ascending?pageState=(%22StorageObjectListTable%22:(%22f%22:%22%255B%255D%22))&amp;hl=ja&amp;project=syns-platform-stg&amp;prefix=&amp;forceOnObjectsSortingFiltering=false" linkTarget="_blank" id="K8FMeHhQiLaidLFwbS4F-33">
          <mxCell style="shape=callout;whiteSpace=wrap;html=1;perimeter=calloutPerimeter;fontStyle=1;fillColor=#fff2cc;strokeColor=#d6b656;align=left;spacingLeft=2;" parent="1" vertex="1">
            <mxGeometry x="720" y="890" width="280" height="120" as="geometry" />
          </mxCell>
        </UserObject>
        <mxCell id="K8FMeHhQiLaidLFwbS4F-35" value="Temp Directory" style="text;html=1;align=center;verticalAlign=middle;resizable=0;points=[];autosize=1;strokeColor=none;fillColor=none;" parent="1" vertex="1">
          <mxGeometry x="610" y="1060" width="100" height="30" as="geometry" />
        </mxCell>
        <mxCell id="K8FMeHhQiLaidLFwbS4F-36" value="Fetch" style="text;html=1;align=center;verticalAlign=middle;resizable=0;points=[];autosize=1;strokeColor=none;fillColor=none;" parent="1" vertex="1">
          <mxGeometry x="540" y="1030" width="50" height="30" as="geometry" />
        </mxCell>
        <mxCell id="K8FMeHhQiLaidLFwbS4F-39" value="Stored Path&lt;br&gt;&lt;span style=&quot;font-weight: normal;&quot;&gt;gs://&amp;lt;Bucket&amp;gt;/&amp;lt;deployment_id&amp;gt;/&amp;lt;deta_type&amp;gt;/ipta/&lt;br&gt;- AOI_results.csv&lt;br&gt;- julian_date_out.txt&lt;br&gt;&lt;/span&gt;" style="shape=callout;whiteSpace=wrap;html=1;perimeter=calloutPerimeter;fontStyle=1;fillColor=#fff2cc;strokeColor=#d6b656;align=left;position2=0.5;spacingLeft=2;" parent="1" vertex="1">
          <mxGeometry x="240" y="240" width="280" height="110" as="geometry" />
        </mxCell>
        <mxCell id="K8FMeHhQiLaidLFwbS4F-38" value="Upload" style="text;html=1;align=center;verticalAlign=middle;resizable=0;points=[];autosize=1;strokeColor=none;fillColor=none;" parent="1" vertex="1">
          <mxGeometry x="690" y="1030" width="60" height="30" as="geometry" />
        </mxCell>
        <mxCell id="K8FMeHhQiLaidLFwbS4F-40" value="" style="rounded=0;whiteSpace=wrap;html=1;strokeColor=#9e9a9a;" parent="1" vertex="1">
          <mxGeometry x="470" y="1170" width="580" height="110" as="geometry" />
        </mxCell>
        <mxCell id="K8FMeHhQiLaidLFwbS4F-57" style="edgeStyle=orthogonalEdgeStyle;rounded=0;orthogonalLoop=1;jettySize=auto;html=1;" parent="1" source="K8FMeHhQiLaidLFwbS4F-46" target="K8FMeHhQiLaidLFwbS4F-56" edge="1">
          <mxGeometry relative="1" as="geometry" />
        </mxCell>
        <mxCell id="K8FMeHhQiLaidLFwbS4F-46" value="" style="strokeColor=#dddddd;shadow=1;strokeWidth=1;rounded=1;absoluteArcSize=1;arcSize=2;" parent="1" vertex="1">
          <mxGeometry x="505" y="1195" width="150" height="60" as="geometry" />
        </mxCell>
        <mxCell id="K8FMeHhQiLaidLFwbS4F-47" value="Cloud Storage" style="editableCssRules=.*;html=1;fontColor=#999999;shape=image;verticalLabelPosition=middle;labelBackgroundColor=#ffffff;verticalAlign=middle;labelPosition=right;align=left;spacingLeft=20;part=1;points=[];imageAspect=0;image=data:image/svg+xml,PHN2ZyB4bWxucz0iaHR0cDovL3d3dy53My5vcmcvMjAwMC9zdmciIHhtbG5zOnY9Imh0dHBzOi8vdmVjdGEuaW8vbmFubyIgd2lkdGg9IjIwIiBoZWlnaHQ9IjE2IiB2aWV3Qm94PSIwIDAgMjAgMTYiPiYjeGE7CTxzdHlsZSB0eXBlPSJ0ZXh0L2NzcyI+JiN4YTsJLnN0MHtmaWxsOiM0Mjg1ZjQ7fSYjeGE7CS5zdDF7ZmlsbDojNjY5ZGY2O30mI3hhOwkuc3Qye2ZpbGw6I2FlY2JmYTt9JiN4YTsJLnN0M3tmaWxsOiNmZmY7fSYjeGE7CTwvc3R5bGU+JiN4YTsJPHBhdGggY2xhc3M9InN0MiIgZD0iTTAgMGgyMHY3SDB6Ii8+JiN4YTsJPHBhdGggY2xhc3M9InN0MSIgZD0iTTE4IDBoMnY3aC0yeiIvPiYjeGE7CTxwYXRoIGNsYXNzPSJzdDAiIGQ9Ik0xOCA3bDItN2gtMnoiLz4mI3hhOwk8cGF0aCBjbGFzcz0ic3QxIiBkPSJNMCAwaDJ2N0gweiIvPiYjeGE7CTxnIGNsYXNzPSJzdDMiPiYjeGE7CQk8cGF0aCBkPSJNNCAzaDZ2MUg0eiIvPiYjeGE7CQk8cmVjdCB4PSIxMyIgeT0iMiIgd2lkdGg9IjMiIGhlaWdodD0iMyIgcng9IjEuNSIvPiYjeGE7CTwvZz4mI3hhOwk8cGF0aCBjbGFzcz0ic3QyIiBkPSJNMCA5aDIwdjdIMHoiLz4mI3hhOwk8cGF0aCBjbGFzcz0ic3QxIiBkPSJNMTggOWgydjdoLTJ6Ii8+JiN4YTsJPHBhdGggY2xhc3M9InN0MCIgZD0iTTE4IDE2bDItN2gtMnoiLz4mI3hhOwk8cGF0aCBjbGFzcz0ic3QxIiBkPSJNMCA5aDJ2N0gweiIvPiYjeGE7CTxnIGNsYXNzPSJzdDMiPiYjeGE7CQk8cGF0aCBkPSJNNCAxMmg2djFINHoiLz4mI3hhOwkJPHJlY3QgeD0iMTMiIHk9IjExIiB3aWR0aD0iMyIgaGVpZ2h0PSIzIiByeD0iMS41Ii8+JiN4YTsJPC9nPiYjeGE7PC9zdmc+;" parent="K8FMeHhQiLaidLFwbS4F-46" vertex="1">
          <mxGeometry width="30" height="24" relative="1" as="geometry">
            <mxPoint x="15" y="18" as="offset" />
          </mxGeometry>
        </mxCell>
        <mxCell id="K8FMeHhQiLaidLFwbS4F-52" value="" style="strokeColor=#dddddd;shadow=1;strokeWidth=1;rounded=1;absoluteArcSize=1;arcSize=2;" parent="1" vertex="1">
          <mxGeometry x="890" y="1195" width="150" height="60" as="geometry" />
        </mxCell>
        <mxCell id="K8FMeHhQiLaidLFwbS4F-53" value="Cloud Storage" style="editableCssRules=.*;html=1;fontColor=#999999;shape=image;verticalLabelPosition=middle;labelBackgroundColor=#ffffff;verticalAlign=middle;labelPosition=right;align=left;spacingLeft=20;part=1;points=[];imageAspect=0;image=data:image/svg+xml,PHN2ZyB4bWxucz0iaHR0cDovL3d3dy53My5vcmcvMjAwMC9zdmciIHhtbG5zOnY9Imh0dHBzOi8vdmVjdGEuaW8vbmFubyIgd2lkdGg9IjIwIiBoZWlnaHQ9IjE2IiB2aWV3Qm94PSIwIDAgMjAgMTYiPiYjeGE7CTxzdHlsZSB0eXBlPSJ0ZXh0L2NzcyI+JiN4YTsJLnN0MHtmaWxsOiM0Mjg1ZjQ7fSYjeGE7CS5zdDF7ZmlsbDojNjY5ZGY2O30mI3hhOwkuc3Qye2ZpbGw6I2FlY2JmYTt9JiN4YTsJLnN0M3tmaWxsOiNmZmY7fSYjeGE7CTwvc3R5bGU+JiN4YTsJPHBhdGggY2xhc3M9InN0MiIgZD0iTTAgMGgyMHY3SDB6Ii8+JiN4YTsJPHBhdGggY2xhc3M9InN0MSIgZD0iTTE4IDBoMnY3aC0yeiIvPiYjeGE7CTxwYXRoIGNsYXNzPSJzdDAiIGQ9Ik0xOCA3bDItN2gtMnoiLz4mI3hhOwk8cGF0aCBjbGFzcz0ic3QxIiBkPSJNMCAwaDJ2N0gweiIvPiYjeGE7CTxnIGNsYXNzPSJzdDMiPiYjeGE7CQk8cGF0aCBkPSJNNCAzaDZ2MUg0eiIvPiYjeGE7CQk8cmVjdCB4PSIxMyIgeT0iMiIgd2lkdGg9IjMiIGhlaWdodD0iMyIgcng9IjEuNSIvPiYjeGE7CTwvZz4mI3hhOwk8cGF0aCBjbGFzcz0ic3QyIiBkPSJNMCA5aDIwdjdIMHoiLz4mI3hhOwk8cGF0aCBjbGFzcz0ic3QxIiBkPSJNMTggOWgydjdoLTJ6Ii8+JiN4YTsJPHBhdGggY2xhc3M9InN0MCIgZD0iTTE4IDE2bDItN2gtMnoiLz4mI3hhOwk8cGF0aCBjbGFzcz0ic3QxIiBkPSJNMCA5aDJ2N0gweiIvPiYjeGE7CTxnIGNsYXNzPSJzdDMiPiYjeGE7CQk8cGF0aCBkPSJNNCAxMmg2djFINHoiLz4mI3hhOwkJPHJlY3QgeD0iMTMiIHk9IjExIiB3aWR0aD0iMyIgaGVpZ2h0PSIzIiByeD0iMS41Ii8+JiN4YTsJPC9nPiYjeGE7PC9zdmc+;" parent="K8FMeHhQiLaidLFwbS4F-52" vertex="1">
          <mxGeometry width="30" height="24" relative="1" as="geometry">
            <mxPoint x="15" y="18" as="offset" />
          </mxGeometry>
        </mxCell>
        <mxCell id="K8FMeHhQiLaidLFwbS4F-59" style="edgeStyle=orthogonalEdgeStyle;rounded=0;orthogonalLoop=1;jettySize=auto;html=1;entryX=0;entryY=0.5;entryDx=0;entryDy=0;" parent="1" source="K8FMeHhQiLaidLFwbS4F-54" target="K8FMeHhQiLaidLFwbS4F-52" edge="1">
          <mxGeometry relative="1" as="geometry" />
        </mxCell>
        <mxCell id="K8FMeHhQiLaidLFwbS4F-54" value="" style="dashed=0;outlineConnect=0;html=1;align=center;labelPosition=center;verticalLabelPosition=bottom;verticalAlign=top;shape=mxgraph.weblogos.json" parent="1" vertex="1">
          <mxGeometry x="790" y="1187.1" width="70" height="75.8" as="geometry" />
        </mxCell>
        <mxCell id="K8FMeHhQiLaidLFwbS4F-58" style="edgeStyle=orthogonalEdgeStyle;rounded=0;orthogonalLoop=1;jettySize=auto;html=1;" parent="1" source="K8FMeHhQiLaidLFwbS4F-56" target="K8FMeHhQiLaidLFwbS4F-54" edge="1">
          <mxGeometry relative="1" as="geometry" />
        </mxCell>
        <mxCell id="K8FMeHhQiLaidLFwbS4F-56" value="" style="shape=image;html=1;verticalAlign=top;verticalLabelPosition=bottom;labelBackgroundColor=#ffffff;imageAspect=0;aspect=fixed;image=https://cdn3.iconfinder.com/data/icons/dompicon-glyph-file-format-2/256/file-csv-format-type-128.png" parent="1" vertex="1">
          <mxGeometry x="680" y="1185" width="80" height="80" as="geometry" />
        </mxCell>
        <UserObject label="Upload Path&lt;br&gt;&lt;span style=&quot;font-weight: normal;&quot;&gt;&amp;lt;Bucket&amp;gt;/land-subsidence/&amp;lt;uuid&amp;gt;/&amp;lt;data_type&amp;gt;/&amp;lt;map_type&amp;gt;/*.geojson&lt;br&gt;&lt;/span&gt;" link="https://console.cloud.google.com/storage/browser/syns-mvt-geojson-stg/land-subsidence/4294967296001/ascending?pageState=(%22StorageObjectListTable%22:(%22f%22:%22%255B%255D%22))&amp;hl=ja&amp;project=syns-platform-stg&amp;prefix=&amp;forceOnObjectsSortingFiltering=false" linkTarget="_blank" id="K8FMeHhQiLaidLFwbS4F-51">
          <mxCell style="shape=callout;whiteSpace=wrap;html=1;perimeter=calloutPerimeter;fontStyle=1;fillColor=#fff2cc;strokeColor=#d6b656;align=left;spacingLeft=2;" parent="1" vertex="1">
            <mxGeometry x="790" y="1090" width="310" height="120" as="geometry" />
          </mxCell>
        </UserObject>
        <mxCell id="K8FMeHhQiLaidLFwbS4F-65" value="" style="rounded=0;whiteSpace=wrap;html=1;strokeColor=#9e9a9a;" parent="1" vertex="1">
          <mxGeometry x="470" y="1380" width="520" height="110" as="geometry" />
        </mxCell>
        <mxCell id="K8FMeHhQiLaidLFwbS4F-66" style="edgeStyle=orthogonalEdgeStyle;rounded=0;orthogonalLoop=1;jettySize=auto;html=1;" parent="1" source="K8FMeHhQiLaidLFwbS4F-67" target="K8FMeHhQiLaidLFwbS4F-72" edge="1">
          <mxGeometry relative="1" as="geometry">
            <mxPoint x="680" y="1435.0588235294122" as="targetPoint" />
          </mxGeometry>
        </mxCell>
        <mxCell id="K8FMeHhQiLaidLFwbS4F-67" value="" style="strokeColor=#dddddd;shadow=1;strokeWidth=1;rounded=1;absoluteArcSize=1;arcSize=2;" parent="1" vertex="1">
          <mxGeometry x="505" y="1405" width="150" height="60" as="geometry" />
        </mxCell>
        <mxCell id="K8FMeHhQiLaidLFwbS4F-68" value="Cloud Storage" style="editableCssRules=.*;html=1;fontColor=#999999;shape=image;verticalLabelPosition=middle;labelBackgroundColor=#ffffff;verticalAlign=middle;labelPosition=right;align=left;spacingLeft=20;part=1;points=[];imageAspect=0;image=data:image/svg+xml,PHN2ZyB4bWxucz0iaHR0cDovL3d3dy53My5vcmcvMjAwMC9zdmciIHhtbG5zOnY9Imh0dHBzOi8vdmVjdGEuaW8vbmFubyIgd2lkdGg9IjIwIiBoZWlnaHQ9IjE2IiB2aWV3Qm94PSIwIDAgMjAgMTYiPiYjeGE7CTxzdHlsZSB0eXBlPSJ0ZXh0L2NzcyI+JiN4YTsJLnN0MHtmaWxsOiM0Mjg1ZjQ7fSYjeGE7CS5zdDF7ZmlsbDojNjY5ZGY2O30mI3hhOwkuc3Qye2ZpbGw6I2FlY2JmYTt9JiN4YTsJLnN0M3tmaWxsOiNmZmY7fSYjeGE7CTwvc3R5bGU+JiN4YTsJPHBhdGggY2xhc3M9InN0MiIgZD0iTTAgMGgyMHY3SDB6Ii8+JiN4YTsJPHBhdGggY2xhc3M9InN0MSIgZD0iTTE4IDBoMnY3aC0yeiIvPiYjeGE7CTxwYXRoIGNsYXNzPSJzdDAiIGQ9Ik0xOCA3bDItN2gtMnoiLz4mI3hhOwk8cGF0aCBjbGFzcz0ic3QxIiBkPSJNMCAwaDJ2N0gweiIvPiYjeGE7CTxnIGNsYXNzPSJzdDMiPiYjeGE7CQk8cGF0aCBkPSJNNCAzaDZ2MUg0eiIvPiYjeGE7CQk8cmVjdCB4PSIxMyIgeT0iMiIgd2lkdGg9IjMiIGhlaWdodD0iMyIgcng9IjEuNSIvPiYjeGE7CTwvZz4mI3hhOwk8cGF0aCBjbGFzcz0ic3QyIiBkPSJNMCA5aDIwdjdIMHoiLz4mI3hhOwk8cGF0aCBjbGFzcz0ic3QxIiBkPSJNMTggOWgydjdoLTJ6Ii8+JiN4YTsJPHBhdGggY2xhc3M9InN0MCIgZD0iTTE4IDE2bDItN2gtMnoiLz4mI3hhOwk8cGF0aCBjbGFzcz0ic3QxIiBkPSJNMCA5aDJ2N0gweiIvPiYjeGE7CTxnIGNsYXNzPSJzdDMiPiYjeGE7CQk8cGF0aCBkPSJNNCAxMmg2djFINHoiLz4mI3hhOwkJPHJlY3QgeD0iMTMiIHk9IjExIiB3aWR0aD0iMyIgaGVpZ2h0PSIzIiByeD0iMS41Ii8+JiN4YTsJPC9nPiYjeGE7PC9zdmc+;" parent="K8FMeHhQiLaidLFwbS4F-67" vertex="1">
          <mxGeometry width="30" height="24" relative="1" as="geometry">
            <mxPoint x="15" y="18" as="offset" />
          </mxGeometry>
        </mxCell>
        <mxCell id="K8FMeHhQiLaidLFwbS4F-71" style="edgeStyle=orthogonalEdgeStyle;rounded=0;orthogonalLoop=1;jettySize=auto;html=1;" parent="1" source="K8FMeHhQiLaidLFwbS4F-72" target="K8FMeHhQiLaidLFwbS4F-78" edge="1">
          <mxGeometry relative="1" as="geometry">
            <mxPoint x="780" y="1435" as="targetPoint" />
          </mxGeometry>
        </mxCell>
        <mxCell id="K8FMeHhQiLaidLFwbS4F-72" value="" style="dashed=0;outlineConnect=0;html=1;align=center;labelPosition=center;verticalLabelPosition=bottom;verticalAlign=top;shape=mxgraph.weblogos.json" parent="1" vertex="1">
          <mxGeometry x="680" y="1397.1" width="70" height="75.8" as="geometry" />
        </mxCell>
        <mxCell id="K8FMeHhQiLaidLFwbS4F-11" value="Geojson Convert &lt;br&gt;from CSV" style="rounded=1;whiteSpace=wrap;html=1;" parent="1" vertex="1">
          <mxGeometry x="390.74" y="1125" width="120" height="60" as="geometry" />
        </mxCell>
        <mxCell id="K8FMeHhQiLaidLFwbS4F-62" value="Generate MVT" style="rounded=1;whiteSpace=wrap;html=1;" parent="1" vertex="1">
          <mxGeometry x="391" y="1330" width="120" height="60" as="geometry" />
        </mxCell>
        <mxCell id="K8FMeHhQiLaidLFwbS4F-75" value="MVT" style="shape=cylinder3;whiteSpace=wrap;html=1;boundedLbl=1;backgroundOutline=1;size=15;" parent="1" vertex="1">
          <mxGeometry x="900" y="1395" width="60" height="80" as="geometry" />
        </mxCell>
        <mxCell id="K8FMeHhQiLaidLFwbS4F-79" style="edgeStyle=orthogonalEdgeStyle;rounded=0;orthogonalLoop=1;jettySize=auto;html=1;entryX=0;entryY=0.5;entryDx=0;entryDy=0;entryPerimeter=0;" parent="1" source="K8FMeHhQiLaidLFwbS4F-78" target="K8FMeHhQiLaidLFwbS4F-75" edge="1">
          <mxGeometry relative="1" as="geometry" />
        </mxCell>
        <mxCell id="K8FMeHhQiLaidLFwbS4F-78" value="" style="shape=image;verticalLabelPosition=bottom;labelBackgroundColor=default;verticalAlign=top;aspect=fixed;imageAspect=0;image=https://www.file-extension.info/images/resource/formats/mvt.png;" parent="1" vertex="1">
          <mxGeometry x="780" y="1400" width="70" height="70" as="geometry" />
        </mxCell>
        <UserObject label="" link="https://github.com/synspective/syns-subsidence-api/blob/develop/cmd/outputs/main.go#L195-L211" linkTarget="_blank" id="K8FMeHhQiLaidLFwbS4F-80">
          <mxCell style="dashed=0;outlineConnect=0;html=1;align=center;labelPosition=center;verticalLabelPosition=bottom;verticalAlign=top;shape=mxgraph.weblogos.github" parent="1" vertex="1">
            <mxGeometry x="480" y="910" width="40" height="40" as="geometry" />
          </mxCell>
        </UserObject>
        <UserObject label="" link="https://github.com/synspective/syns-subsidence-api/blob/develop/cmd/outputs/main.go#L213-L229" linkTarget="_blank" id="K8FMeHhQiLaidLFwbS4F-82">
          <mxCell style="dashed=0;outlineConnect=0;html=1;align=center;labelPosition=center;verticalLabelPosition=bottom;verticalAlign=top;shape=mxgraph.weblogos.github" parent="1" vertex="1">
            <mxGeometry x="480" y="1110" width="40" height="37" as="geometry" />
          </mxCell>
        </UserObject>
        <UserObject label="" link="https://github.com/synspective/syns-mvt-server/blob/develop/tilegen/step1-tilegen/split_geojson_tiles_creation.py" linkTarget="_blank" id="K8FMeHhQiLaidLFwbS4F-83">
          <mxCell style="dashed=0;outlineConnect=0;html=1;align=center;labelPosition=center;verticalLabelPosition=bottom;verticalAlign=top;shape=mxgraph.weblogos.github" parent="1" vertex="1">
            <mxGeometry x="491.5" y="1315" width="37" height="37" as="geometry" />
          </mxCell>
        </UserObject>
        <UserObject label="" link="https://github.com/synspective/GAMMA_Scripts/blob/release/20230426/steps/argo-workflow.yaml" linkTarget="_blank" id="K8FMeHhQiLaidLFwbS4F-88">
          <mxCell style="dashed=0;outlineConnect=0;html=1;align=center;labelPosition=center;verticalLabelPosition=bottom;verticalAlign=top;shape=mxgraph.weblogos.github" parent="1" vertex="1">
            <mxGeometry x="120" y="180" width="37" height="37" as="geometry" />
          </mxCell>
        </UserObject>
        <mxCell id="K8FMeHhQiLaidLFwbS4F-89" value="&lt;b style=&quot;border-color: var(--border-color);&quot;&gt;Over&lt;br&gt;&lt;/b&gt;&lt;b&gt;4000 Lines!!&lt;/b&gt;" style="text;html=1;strokeColor=none;fillColor=none;align=center;verticalAlign=middle;whiteSpace=wrap;rounded=0;rotation=-30;" parent="1" vertex="1">
          <mxGeometry x="120" y="235" width="80" height="30" as="geometry" />
        </mxCell>
        <mxCell id="K8FMeHhQiLaidLFwbS4F-94" value="&lt;span style=&quot;font-size: 10px;&quot;&gt;&lt;b&gt;longitude, latitude, rate, displacement,&amp;nbsp; timestamps...&lt;/b&gt;&lt;/span&gt;" style="shape=callout;whiteSpace=wrap;html=1;perimeter=calloutPerimeter;align=left;spacingLeft=2;verticalAlign=top;position2=0.52;" parent="1" vertex="1">
          <mxGeometry x="260" y="190" width="270" height="60" as="geometry" />
        </mxCell>
        <mxCell id="K8FMeHhQiLaidLFwbS4F-131" value="" style="shape=flexArrow;endArrow=classic;html=1;rounded=0;entryX=-0.01;entryY=0.432;entryDx=0;entryDy=0;entryPerimeter=0;" parent="1" target="K8FMeHhQiLaidLFwbS4F-121" edge="1">
          <mxGeometry width="50" height="50" relative="1" as="geometry">
            <mxPoint x="497" y="360" as="sourcePoint" />
            <mxPoint x="680" y="240" as="targetPoint" />
          </mxGeometry>
        </mxCell>
        <mxCell id="K8FMeHhQiLaidLFwbS4F-121" value="save_result.py" style="swimlane;horizontal=0;whiteSpace=wrap;html=1;" parent="1" vertex="1">
          <mxGeometry x="660" y="10" width="480" height="620" as="geometry" />
        </mxCell>
        <mxCell id="K8FMeHhQiLaidLFwbS4F-123" value="main.py" style="rounded=1;whiteSpace=wrap;html=1;" parent="K8FMeHhQiLaidLFwbS4F-121" vertex="1">
          <mxGeometry x="60" y="5" width="120" height="60" as="geometry" />
        </mxCell>
        <mxCell id="K8FMeHhQiLaidLFwbS4F-126" value="select data type" style="rhombus;whiteSpace=wrap;html=1;" parent="K8FMeHhQiLaidLFwbS4F-121" vertex="1">
          <mxGeometry x="60" y="105" width="120" height="80" as="geometry" />
        </mxCell>
        <mxCell id="K8FMeHhQiLaidLFwbS4F-122" value="" style="edgeStyle=orthogonalEdgeStyle;rounded=0;orthogonalLoop=1;jettySize=auto;html=1;" parent="K8FMeHhQiLaidLFwbS4F-121" source="K8FMeHhQiLaidLFwbS4F-123" target="K8FMeHhQiLaidLFwbS4F-126" edge="1">
          <mxGeometry relative="1" as="geometry" />
        </mxCell>
        <mxCell id="K8FMeHhQiLaidLFwbS4F-127" value="&lt;div style=&quot;&quot;&gt;&lt;/div&gt;- upload preparation&lt;br&gt;&lt;br&gt;- db connect&lt;br&gt;&amp;nbsp; - transaction&lt;br&gt;&amp;nbsp; &amp;nbsp; - db cleanup&lt;br&gt;&amp;nbsp; &amp;nbsp; - insert data to some tables&lt;br&gt;&amp;nbsp; &amp;nbsp; &amp;nbsp; - locations&lt;br&gt;&amp;nbsp; &amp;nbsp; &amp;nbsp; - markers&lt;br&gt;&amp;nbsp; &amp;nbsp; &amp;nbsp; - dates&lt;br&gt;&amp;nbsp; &amp;nbsp; &amp;nbsp; - timestamp_range_combinations&lt;br&gt;" style="rounded=1;whiteSpace=wrap;html=1;align=left;spacingLeft=2;" parent="K8FMeHhQiLaidLFwbS4F-121" vertex="1">
          <mxGeometry x="230" y="170" width="240" height="185" as="geometry" />
        </mxCell>
        <mxCell id="K8FMeHhQiLaidLFwbS4F-124" style="edgeStyle=orthogonalEdgeStyle;rounded=0;orthogonalLoop=1;jettySize=auto;html=1;" parent="K8FMeHhQiLaidLFwbS4F-121" source="K8FMeHhQiLaidLFwbS4F-126" target="K8FMeHhQiLaidLFwbS4F-127" edge="1">
          <mxGeometry relative="1" as="geometry" />
        </mxCell>
        <mxCell id="K8FMeHhQiLaidLFwbS4F-128" value="&lt;div style=&quot;&quot;&gt;&lt;/div&gt;- upload preparation&lt;br&gt;&lt;br&gt;- db connect&lt;br&gt;&amp;nbsp; - transaction&lt;br&gt;&amp;nbsp; &amp;nbsp; - db cleanup&lt;br&gt;&amp;nbsp; &amp;nbsp; - insert data to some tables&lt;br&gt;&amp;nbsp; &amp;nbsp; &amp;nbsp; - locations&lt;br&gt;&amp;nbsp; &amp;nbsp; &amp;nbsp; - markers&lt;br&gt;&amp;nbsp; &amp;nbsp; &amp;nbsp; - dates&lt;br&gt;&amp;nbsp; &amp;nbsp; &amp;nbsp; - timestamp_range_combinations&lt;br&gt;&amp;nbsp; &amp;nbsp; &amp;nbsp; -&amp;nbsp;&lt;b&gt;related_markers&lt;/b&gt;" style="rounded=1;whiteSpace=wrap;html=1;align=left;spacingLeft=2;" parent="K8FMeHhQiLaidLFwbS4F-121" vertex="1">
          <mxGeometry x="230" y="380" width="240" height="185" as="geometry" />
        </mxCell>
        <mxCell id="K8FMeHhQiLaidLFwbS4F-125" style="edgeStyle=orthogonalEdgeStyle;rounded=0;orthogonalLoop=1;jettySize=auto;html=1;entryX=-0.001;entryY=0.537;entryDx=0;entryDy=0;entryPerimeter=0;" parent="K8FMeHhQiLaidLFwbS4F-121" source="K8FMeHhQiLaidLFwbS4F-126" target="K8FMeHhQiLaidLFwbS4F-128" edge="1">
          <mxGeometry relative="1" as="geometry">
            <Array as="points">
              <mxPoint x="120" y="479" />
            </Array>
          </mxGeometry>
        </mxCell>
        <mxCell id="K8FMeHhQiLaidLFwbS4F-129" value="ASC/DSC" style="text;html=1;align=center;verticalAlign=middle;resizable=0;points=[];autosize=1;strokeColor=none;fillColor=none;" parent="K8FMeHhQiLaidLFwbS4F-121" vertex="1">
          <mxGeometry x="145" y="260" width="80" height="30" as="geometry" />
        </mxCell>
        <mxCell id="K8FMeHhQiLaidLFwbS4F-130" value="Vertical/&lt;br&gt;Horizontal" style="text;html=1;align=center;verticalAlign=middle;resizable=0;points=[];autosize=1;strokeColor=none;fillColor=none;" parent="K8FMeHhQiLaidLFwbS4F-121" vertex="1">
          <mxGeometry x="80" y="475" width="80" height="40" as="geometry" />
        </mxCell>
        <mxCell id="tYn8lOLBMGWMNOhVMFbC-11" value="" style="shape=image;verticalLabelPosition=bottom;labelBackgroundColor=default;verticalAlign=top;aspect=fixed;imageAspect=0;image=https://www.python.jp/pages/python_logo2.png;" parent="K8FMeHhQiLaidLFwbS4F-121" vertex="1">
          <mxGeometry x="180" y="5" width="111.02" height="47" as="geometry" />
        </mxCell>
        <mxCell id="tYn8lOLBMGWMNOhVMFbC-1" value="" style="shape=image;verticalLabelPosition=bottom;labelBackgroundColor=default;verticalAlign=top;aspect=fixed;imageAspect=0;image=data:image/png,iVBORw0KGgoAAAANSUhEUgAAASsAAACpCAMAAABEdevhAAABRFBMVEX///9q1+UAAAD20qJc1ONs2+mh4+1h1eTo9vNs3Opr2Obh9vlf1eTz+/tt3+371qX/26lx1t9hz9ny7+6A2N6L3OKspqV9dHPKxcWEe3qyrKv//PzW0tHK7vC66Olt4+5ey9RNr7qZkpFWv8zo5eWJgH8+mKKQiIehm5pbVFO+t7ZFo63h3t00iJI3Nzfd8u8VFRUfWl6qrK8mdX55fIBPWFobTFIXYWk9TlBtY2EfQUI0iZRAREQoe4EqPDsrMTJaeXpTZ2lQTEwKNDk5dHgDP0ErWF4kSU4YMTMPXWBVrLZGUVIPHx51amlhYWEASE8kDws5V1ughGBSSjvAqoN3YEQvfIo7NinSsYWylW9oWUl5WDlPSEgNDxYAHShrWEVDMzFncHF/cE6llHJ6dF87IQDgwpRXRS4wODOQg2V3ako4Mhq7CoKRAAAO2UlEQVR4nO2d+1vixhrHCSSEZGGAAIrcJAYRQaSIyq66bmvdtZeV7arb1T09p2frOW635////cwkXHKZyQUHtDif52nL0yRD5us777zzzoVQiMFgMBgMBoPBYDAYDAaDwWAwGAwGg8FgMBaRzFZ+qbGMWFlbWsqXMg/9Qo+T0tL53n6/3VKriigqEFVtHfa6z180Sg/9ao+K0tpet62KAEiCIMgyJ+vAzxIAgvpy/7xZfOhXfBxsrRwcakglmcMiC0Bs7Z/XHvo9H57C0csqIMlkkkvpv3jiajWP60ByFUpvjei/ktJd15/J5PP5pydbbbsOhKEgeKEkoGiaVtX1lIH6qhZqHvXqav3lceGhX34elDZOvv1u0ICW0XgnC3r7khRFXBUEh1JA7e+tF5qF9c2+CqBagvDmBNqhAL0+qJ8svLvPbPa0VQlIWn/9vA7rLwOt9355eeN8r9+SrGoB7XhppEexsa8gXcFpCxhXpeqrB63I7Nn6XjHck7D6vSZBPdTnjaHvKTb32sAsVW/D/GTmRENSgtO6ZDRYobr5EDWYG7XXI0cuHFQFaCY/NsyX868nHSLo5m0PbyroIniD/JduWW37HQvFETIJ6G04cIasRDrbsl7PnEljq3IIUTzQJQI/hMN9Q6yTeb33A9CsI4GqLXX1tIUaYNfR9W8ZKnCytkF4nJO5cDjcQp+kHxd4uHgChRB+glUNn6JPdUy/v6HprRCc4Xq5M8Oc6uHwG/RJqC/uSLHYR8aEpHqLmhr4GXdPF4zNasueZlhXDCEPwm1kV0KrOY/XfhC2eoLRgsI/of5fXYL/r7Rj0+McySi0oSMbwButTqvZMiJX9QfdwITDxbUrpBUH3obDupMWfq2FikdQD0tXGCqo0HakLoxUkahhi0ertY0IDAy9fHdxw9Eictxy9a1uVpzUL4Z2dT0s1pHX/f9pKPRKv2YRsvaj0U0Kbd0wlfP5vv9c2dRDBvDWcNH7oZAuR3jXfE9N1+pb41p+19Id1nqGVjLXRZ7v9QJ3g0ZEIKtGSxpptbUxsNyja9WHnSa8lllaMl8rHQ5HQeBMEqR3i+utEGuHQJZOq3pvJvWKoW2kx5qlnTVVAUUD+VBJtznL4w1tFPW3NfWVLY6dPbFOpxOb39c1uiIwoqSJHt9Y7lhGcYHMwbFefjs8sLayn0fjRbn6i8XgZkyiHE3zE3KV6RSLdcqQZx2/99c2+y+NhiQrK7BVbX6za+nMivuGM+thrMaI241GOLdxc6Kc43lRtGRARKjXsyBldCo5hefjYlyExHleyZUTfh5sqCOng+vy11AzQ6nQI8elzP4kDSHNKVzo5Pg4h4VXyj6LiCp2rSFxPl3xfvZ8lEqQqy8cF6H3R7nQqgA0+8XaMTdJns4nDK2IBKGM6nLerQlp7dBpbJ05L+M6G1uHVG/YrtUOgMydIid2pmm/WZxVc988gSGr9kfpU+FJtRzbVta9shWF9yjAXS19UDgEtK3ZhOY7Qa6Gh/zEdTdGUXuxeYSSqCatxOV76eBNx9lucJV1aYjeWiPbcmvJW21TphioR5MRX2mzDmDkNNLq7SrQes9XGo3G2qBrzy9zYI+eLDhyHhYxFitKKKDDubXfCfEs2fPmW+ZaC9Lh++VCaSu/dP7+UBBkoIXHiBKaFtRUVQF2paBW+7PRaFhRn0pBRHxd/WoN4YluTx8bm9UColqv11URCLIsnl1cjqS6+vArkMfTg3ZQJDszKv4rCsVKOwvo+Gh+JrFI7XCtaq+6vnDBCOW3I8nk7UcYnl7eRpKp6zOHOY3RszYzIuev9YzFytoLCKQ1EosQPqwoxGlmqXeXjECNkpEU/Ad+ujsDpHtnmOdLB7EJhJizFhANKBVRrBWyrYCTVMRC8qZFultWZzXxHFgqe1UDmqVRArYZDlaJD4BPQ62SyZFavxK1qq4/GqlgVU0DxNw0BVhKGHPiotV7pFUyFbm+ujMa4VWdqJUymwArO1VNuYnLik5XAKdgXuY3slay9o9UKnJzuTvYaJx8hU7r7lgi3rzqHCBRYNqaxketsDJFA9SxOz0PrThJffPPXRicfobxeulfn37vc+TlRqv/noFU5cBeeYRy3wJwrXDTRStOXtXD8RM0tvkOSMBlZRbYpi9VzK2mKJ3iclU3rISrVO4lcM447dxNKw581rVCo+Yj1xv1lLxPEjEPRgNYYk1FXsxFy+UoSmW51TRNfF2R57NRSJpcgrMvdIkZIOC5rhWKyV06TIT0nV+pOrwXQ1dB6sHiyiQRGiONiFFNSd5O5NPjEhLPoiS1HIblEotyxkTY0K68tPI7IEx4u+vEUFN8Re1JPWdULhqZO1IBfNSWeSEEqw6PteIY45gRWo1QKKNPN297aPXap1ZpT7MaaoFvQJhEQsJ8p67TM12MLL4ATI4qpuDuFO1fteSqFQe6hcIB2C9svSCGVkOt3vnU6pknxn0VrP3hkwAjsUReiZZH1oDvA0X8wBgb8tobYUF11wC0WgD+62WVHFoZWu1TTjRgpUoT8pZp1Kvx1hkGXAG4JMS4BAf2RtgkDvGG6GtsiRsDZqYVzqzINU2ksxXbTA7WLh0piEkJGCsUbUPokkfb8gvtmRzcd5CsCgvOBeEGLiNwEb4tdi+1H6VWuDfHjmdJlHEFuGqdcz5gM8PMPLSqRH2TIL543McE3gSM/7E3KRsYdXmbVl1i/i6YVn2yVmVe9Mvw7XCjG6KzwjFNAU557YbY9ejg7q+V67DOymh0j3HM9mjBfaSEK8CrCTvD/LjtO49nble5dNZJDs+wPpgw0mYVUfd4FtMJetpl2fGQPRj7efZtMDCYDtzmbALMgg2Je653cH6rXavPlNogzUkv51+YE613kDMIJHj8V5lxamXrDV5Mp40dqlphvI21BU2Rw8PkOe04nrFrtSF6heS+kHoUV4s6vaxtHBvcrLybIKZUu1Zr2kNplXBClMLqOYJ7K473sZjN07evqZS0CrqPt4LpvoZiOccn1t4bn21xxT1m18H4dlvM0KSlVdBJeoxtjCrkvGSpaoCAbYL3CzkDd3tIlvdIyvgksF3lMMH8UBGMFpa3xgyAPJG938jpJS19Z21nZ8UrKeMPof7p6HOQNQ3lIRUzxiWMO7JoNY1Z+RghOf8Epocav/1xdX1DJykj1K9TkduPOwHUIuKhFT5j6oF3eIUJgMd5htr2VSqZTF7RSTQI9ZtkJJm62HV7HZ9g2qC5R5pqftQ7oeP8E0wCle2IsUaBklatG1Rc6iuFTc+4IU7U7aoP4p4xgzNQGXe+jWt99YvLeo5AyJquVSQ1cH0hf7gnVDAzQd7v55iUsYNp2eNx1efI7R2q2wWdflDWLtCqmo+3NBohJiyPm4KGjmPqx0cc7+GwEphHxsOi2je30MEkv/5CJ26XtfAFdH+pjxSkwgUFrnbhx9t7DHIwk9ymJz5DV3zzZ6lBJxblxLX8x5vrGxpmhZ/EIQfe/oY8IvH5EH5JqemBzMl/TnaojQc5Djqq/BqVmAGvFTFRkPA3knazTFzeAnP/Op08AyfRcOpDOrgVZsSl1H5XOZIXrmNTPHHnfZv3EcgE8L1QxgfY9QUKvtvHLZNMY02NJBZ2TTfOjinlRbnVY4pa4VcD4SwrhluJEC8TVkPgTDOGX6iM6zef08m3c4CmVriZUA63SAa/zD8deua3ANJGAexsJHl9fzCEU4pakRKfYtq8vCNRVvDmEyMXoFTM/WmiTFoTjh1rU5ofhFrRnKQnRkwin6uUO4lYp1zJERbk6R0YcQGyyEcrht/qVIhL+vDDR1rzzpxA9ZQil0GfvkPZsefZhL7Cw2X5oCjCQVE67VYEfjo/Q9wKERC6Wk29sn1sElOvbOeIsRytdTKc1KeqFW585ovxZpzgcz1jCIuXxmd33Beqk16h4BvZhkxMYorJnlEZhFxXnk4KGbZBylpNM1ljbT1Tt0JSWrDwaLW6f1p9ulZoXxxj0opO+op+G5xmasu2oHQqn0ceNYYKtNIM9LUKvGrBsfZ2molEl7y8x/p2/1COGaYQy7nRORQLGHmQVzoj1h+zVoHEwh7NkAi0r5V4uoOB+x6TANAdD47ocH7rStgQEWBnq+h1IA01rcAZfaUgiawv0+LJq/z9bqPnPVdoUdOKav7KjI9zYOJpt4mHTtpHoMVnvVfPO8+ymBKaOWQrCY8DTuKc18r3ildL5nN+Tlcr0NKKm+FJRbEs0bZE3tWmRlQUsm3FxZy/HRm0YlFZW7ufHu4kohxGLpHnon43npTTuCPZxLiY9XkgG70xzuwPQ45Fswofn6zV4rNBDzUs59KoAEMklAZTslHfQoXo7fMS2vM4hS5WRlt7ctFopTzlaZmdSjSXTaez0Wg58IGbW7T2LtHcC/BIyfTp5NtXnQdFLh505nH000kXngEVu0Kn3i4+G1SSMot8dvuEPJWOUFrsH8cZUqQxQSio8zw7+uEYUGiDoLvI59xP8DyhwZvF/vkEE8X9ezfC4Jtx/q6s3LsnFBb516ks3NuwQG+xf2rCzMb98jK4g98XF5fzHf2Y1fdPoxM0KPXv0QoxP7e30KzVpxYL1GeaEH2ELLemFAu0nkKCwcr6dJYF6v+d/S9NPDKKA/0o+4DIoHeRupnZZNfjpPTxLnX1TgnYHUrKwVUqkrx6UmLtfEhFIsnIl0MQINASwOGX4dbWJ+Tdd/4wDmpPXf3ZAp6nGBqtTwD1t1+Mx5KpD09lOBiqfUkND7NPpi7Ch5y3cQlAaW83DXOMRK6SkRn/4svjYfcu9fXa+EGJy41SadBVJRfrEgQgt96d6yPAvN52L+9Slw9dh3nxKnV3iQwkdbOnD1YyS5v7bQ0ASRBMP/CCft5EkgCnvtx/URgl13e+wgfvPj0drXYjl7q3+svkokuNzff9dkvTRCiQBFUTqpra6nWfny9ZfNPuTSqS+v32yTj32v/+gj1/5NK+ICFTai6tr59vDgaDzcHK+kYhv+WcrNn9I5n8QGWT89+D4tFd8mY76JlMQ/J7e09q7FzcDXRsDoPBYDAYDAaDwWAwGAwGg8FgMBgMBoPBYNj5P9EJYaqGYsPYAAAAAElFTkSuQmCC;" parent="1" vertex="1">
          <mxGeometry x="100.74" y="860" width="115" height="65" as="geometry" />
        </mxCell>
        <mxCell id="tYn8lOLBMGWMNOhVMFbC-4" style="edgeStyle=orthogonalEdgeStyle;rounded=0;orthogonalLoop=1;jettySize=auto;html=1;" parent="1" source="tYn8lOLBMGWMNOhVMFbC-2" target="K8FMeHhQiLaidLFwbS4F-62" edge="1">
          <mxGeometry relative="1" as="geometry" />
        </mxCell>
        <mxCell id="tYn8lOLBMGWMNOhVMFbC-2" value="Step8&lt;br&gt;tile gen" style="rounded=1;whiteSpace=wrap;html=1;" parent="1" vertex="1">
          <mxGeometry x="50" y="1330" width="70" height="60" as="geometry" />
        </mxCell>
        <mxCell id="tYn8lOLBMGWMNOhVMFbC-6" value="" style="shape=image;verticalLabelPosition=bottom;labelBackgroundColor=default;verticalAlign=top;aspect=fixed;imageAspect=0;image=https://www.python.jp/pages/python_logo2.png;" parent="1" vertex="1">
          <mxGeometry x="121.77" y="1310" width="111.02" height="47" as="geometry" />
        </mxCell>
        <UserObject label="Mapbox&lt;br&gt;Tipcannoe&lt;span style=&quot;font-weight: normal; font-size: 18px;&quot;&gt;&lt;br style=&quot;font-size: 18px;&quot;&gt;&lt;/span&gt;" link="https://console.cloud.google.com/storage/browser/syns-mvt-geojson-stg/land-subsidence/4294967296001/ascending?pageState=(%22StorageObjectListTable%22:(%22f%22:%22%255B%255D%22))&amp;hl=ja&amp;project=syns-platform-stg&amp;prefix=&amp;forceOnObjectsSortingFiltering=false" linkTarget="_blank" id="tYn8lOLBMGWMNOhVMFbC-9">
          <mxCell style="shape=callout;whiteSpace=wrap;html=1;perimeter=calloutPerimeter;fontStyle=1;fillColor=#fff2cc;strokeColor=#d6b656;align=left;spacingLeft=2;fontSize=18;" parent="1" vertex="1">
            <mxGeometry x="772.5" y="1300" width="127.5" height="105" as="geometry" />
          </mxCell>
        </UserObject>
        <UserObject label="" link="https://github.com/mapbox/tippecanoe" linkTarget="_blank" id="tYn8lOLBMGWMNOhVMFbC-8">
          <mxCell style="dashed=0;outlineConnect=0;html=1;align=center;labelPosition=center;verticalLabelPosition=bottom;verticalAlign=top;shape=mxgraph.weblogos.github" parent="1" vertex="1">
            <mxGeometry x="863" y="1300" width="37" height="37" as="geometry" />
          </mxCell>
        </UserObject>
        <mxCell id="tYn8lOLBMGWMNOhVMFbC-12" value="LDM data generation flow" style="text;html=1;align=center;verticalAlign=middle;resizable=0;points=[];autosize=1;strokeColor=none;fillColor=none;fontStyle=1;fontSize=24;" parent="1" vertex="1">
          <mxGeometry x="12.5" width="320" height="40" as="geometry" />
        </mxCell>
        <mxCell id="f1FCKg4DA0xhl9XG6_5h-2" value="Text" style="text;html=1;strokeColor=none;fillColor=none;align=center;verticalAlign=middle;whiteSpace=wrap;rounded=0;" parent="1" vertex="1">
          <mxGeometry x="600" y="460" width="60" height="30" as="geometry" />
        </mxCell>
        <mxCell id="f1FCKg4DA0xhl9XG6_5h-3" value="create CSV" style="text;html=1;strokeColor=none;fillColor=none;align=center;verticalAlign=middle;whiteSpace=wrap;rounded=0;" parent="1" vertex="1">
          <mxGeometry x="132.5" y="405" width="80" height="30" as="geometry" />
        </mxCell>
        <mxCell id="f1FCKg4DA0xhl9XG6_5h-7" value="combine ASC&amp;amp;DSC&lt;br&gt;to VER&amp;amp;HOR" style="text;html=1;strokeColor=none;fillColor=none;align=center;verticalAlign=middle;whiteSpace=wrap;rounded=0;" parent="1" vertex="1">
          <mxGeometry x="110" y="695" width="60" height="30" as="geometry" />
        </mxCell>
        <mxCell id="nOcKP9Ywm4J2Nz0sYr-H-1" value="野嶋メモ&lt;br&gt;&lt;br&gt;Step6,7&lt;br&gt;&lt;br&gt;●locations&lt;br&gt;h,v,d,a それぞれのdisplacementの統計値&lt;br&gt;なぜ&quot;locations&quot;?&lt;br&gt;&lt;br&gt;●markers&lt;br&gt;各ポイントのデータ。4000万行ある&lt;br&gt;locationsと紐づいている&lt;br&gt;&lt;br&gt;&lt;br&gt;●dates&lt;br&gt;データ取得日時(yyyymmdd, julian)が各行に入っている。&lt;br&gt;locationsと紐づいている&lt;br&gt;&lt;br&gt;&lt;br&gt;●timestamp_range_combinations&lt;br&gt;差分解析用に事前に計算されたデータの統計。全通り？78あった&lt;br&gt;現在はDashboardがないので6つくらいしか使われてない&lt;br&gt;locationsと紐づいている&lt;br style=&quot;border-color: var(--border-color);&quot;&gt;&lt;br&gt;&lt;br&gt;●related_markers&lt;br&gt;a,d,v,hのmarker_idが一行に入ってる (markersテーブルのID)&lt;br&gt;v,hを計算したa,dの記録&lt;br&gt;&lt;br&gt;&lt;br&gt;ここでもsingle LoSの問題がある。&lt;br&gt;Asc/Dscどちらを使ったのかわからない&lt;br&gt;ベースをどちらにすればいいのかわからないため&lt;br&gt;&lt;br&gt;&lt;br&gt;&lt;br&gt;Step8&lt;br&gt;Single LoSで問題になっている？&lt;br&gt;ロジックはsubsidence APIに書いてある。なぜ&lt;br&gt;https://github.com/synspective/GAMMA_Scripts/pull/727&lt;br&gt;●&lt;br&gt;●&lt;br&gt;●&lt;br&gt;&lt;br&gt;meshgrid generateは結果を取ってくるSQLを直す" style="rounded=0;whiteSpace=wrap;html=1;align=left;" parent="1" vertex="1">
          <mxGeometry x="1240" y="138" width="590" height="690" as="geometry" />
        </mxCell>
        <mxCell id="nOcKP9Ywm4J2Nz0sYr-H-2" value="Step7の確認&lt;br&gt;・ASCのみの時の挙動&lt;br&gt;・DSCのみの時の挙動 (問題ありそう)&lt;br&gt;→大丈夫そう。&lt;br&gt;save_resultテスト済み&lt;br&gt;&lt;br&gt;Step8&lt;br&gt;・Meshgrid作成時のSQLでちゃんとデータを取ってこれるか&lt;br&gt;&lt;br&gt;" style="rounded=0;whiteSpace=wrap;html=1;" parent="1" vertex="1">
          <mxGeometry x="1240" y="870" width="250" height="160" as="geometry" />
        </mxCell>
      </root>
    </mxGraphModel>
  </diagram>
</mxfile>
